<svg width="16" height="16" viewBox="0 0 16 16" fill="none" xmlns="http://www.w3.org/2000/svg">
<g id="dog">
<path id="Vector" d="M6.66665 3.44824C6.66665 2.52157 5.61532 1.78624 4.33332 2.00024C2.45132 2.31357 1.59132 6.00424 1.66665 6.6669C1.71999 7.13557 2.81665 7.8149 4.10399 7.33357C4.94465 7.0189 5.41065 6.3669 5.66665 5.6669M9.51139 3.44824C9.51139 2.52157 10.5627 1.78624 11.8447 2.00024C13.7267 2.31357 14.5867 6.00424 14.5114 6.6669C14.4581 7.13557 13.3614 7.8149 12.0741 7.33357C11.2334 7.0189 10.8374 6.3669 10.5814 5.6669M5.33333 9.33366V9.66699M10.6667 9.33366V9.66699M2.94667 7.49838C2.76009 8.21885 2.666 8.96015 2.66667 9.70438C2.66667 12.4857 5.05467 14.0004 8 14.0004C10.9453 14.0004 13.3333 12.4857 13.3333 9.70438C13.3333 8.99705 13.2253 8.23772 13.0047 7.49838M6.84267 3.44372C7.22386 3.36883 7.61154 3.33198 8 3.33372C8.52 3.33372 9 3.40572 9.44067 3.53772M7.5 10.8337H8.5L8 11.3337L7.5 10.8337Z" stroke="#EC559C" stroke-width="1.5" stroke-linecap="round" stroke-linejoin="round"/>
</g>
</svg>
