<svg width="16" height="16" viewBox="0 0 16 16" fill="none" xmlns="http://www.w3.org/2000/svg">
<g id="clover">
<path id="Vector" d="M10.78 5.22038L1.33337 14.667M10.78 5.22038C10.9599 5.04026 11.1012 4.82541 11.1959 4.58912C11.2905 4.35283 11.3362 4.09982 11.3304 3.84536C11.3246 3.5909 11.2672 3.34026 11.1619 3.10856C11.0566 2.87686 10.9054 2.66889 10.7175 2.49721C10.5296 2.32552 10.3088 2.19368 10.0686 2.10963C9.82834 2.02558 9.57355 1.99106 9.3196 2.00816C9.06565 2.02527 8.81779 2.09363 8.59098 2.20913C8.36417 2.32463 8.16311 2.48488 7.99992 2.6802C7.83672 2.48488 7.63566 2.32463 7.40885 2.20913C7.18204 2.09363 6.93418 2.02527 6.68023 2.00816C6.42628 1.99106 6.1715 2.02558 5.93125 2.10963C5.691 2.19368 5.47027 2.32552 5.28236 2.49721C5.09446 2.66889 4.94327 2.87686 4.83793 3.10856C4.73259 3.34026 4.67527 3.5909 4.66944 3.84536C4.6636 4.09982 4.70937 4.35283 4.80398 4.58912C4.89859 4.82541 5.04008 5.04008 5.21992 5.2202M10.78 5.22038C10.9602 5.04054 11.1747 4.89887 11.411 4.80426C11.6473 4.70965 11.9003 4.66389 12.1548 4.66972C12.4092 4.67556 12.6599 4.73287 12.8916 4.83822C13.1233 4.94356 13.3312 5.09474 13.5029 5.28265C13.6746 5.47055 13.8064 5.69128 13.8905 5.93153C13.9745 6.17178 14.0091 6.42656 13.992 6.68051C13.9749 6.93447 13.9065 7.18232 13.791 7.40913C13.6755 7.63594 13.5152 7.83701 13.3199 8.0002C13.5152 8.16339 13.6755 8.36446 13.791 8.59127C13.9065 8.81808 13.9749 9.06594 13.992 9.31989C14.0091 9.57384 13.9745 9.82862 13.8905 10.0689C13.8064 10.3091 13.6746 10.5298 13.5029 10.7178C13.3312 10.9057 13.1233 11.0568 12.8916 11.1622C12.6599 11.2675 12.4092 11.3248 12.1548 11.3307C11.9003 11.3365 11.6473 11.2907 11.411 11.1961C11.1747 11.1015 10.96 10.96 10.7799 10.7802M2.67992 8.0002C2.48459 7.83701 2.32434 7.63594 2.20884 7.40913C2.09334 7.18232 2.02498 6.93447 2.00788 6.68051C1.99078 6.42656 2.0253 6.17178 2.10935 5.93153C2.1934 5.69128 2.32524 5.47055 2.49692 5.28265C2.66861 5.09474 2.87657 4.94356 3.10828 4.83822C3.33998 4.73287 3.59062 4.67556 3.84508 4.66972C4.09954 4.66389 4.35254 4.70965 4.58883 4.80426C4.82512 4.89887 5.0398 5.04036 5.21992 5.2202M5.21992 5.2202L10.7799 10.7802M10.7799 10.7802C10.9598 10.9603 11.1012 11.175 11.1959 11.4113C11.2905 11.6476 11.3362 11.9006 11.3304 12.155C11.3246 12.4095 11.2672 12.6601 11.1619 12.8918C11.0566 13.1235 10.9054 13.3315 10.7175 13.5032C10.5296 13.6749 10.3088 13.8067 10.0686 13.8908C9.82834 13.9748 9.57355 14.0093 9.3196 13.9922C9.06565 13.9751 8.81779 13.9068 8.59098 13.7913C8.36417 13.6758 8.16311 13.5155 7.99992 13.3202C7.83672 13.5155 7.63566 13.6758 7.40885 13.7913C7.18204 13.9068 6.93418 13.9751 6.68023 13.9922C6.42628 14.0093 6.1715 13.9748 5.93125 13.8908C5.691 13.8067 5.47027 13.6749 5.28236 13.5032C5.09446 13.3315 4.94327 13.1235 4.83793 12.8918C4.73259 12.6601 4.67527 12.4095 4.66944 12.155C4.6636 11.9006 4.70937 11.6476 4.80398 11.4113C4.89859 11.175 5.04008 10.9603 5.21992 10.7802C4.85126 11.1188 4.36321 11.2971 3.86311 11.2758C3.36301 11.2546 2.89184 11.0355 2.55325 10.6669C2.21466 10.2982 2.03638 9.81016 2.05763 9.31006C2.07889 8.80997 2.29793 8.33879 2.66658 8.0002" stroke="#FD9F00" stroke-width="1.5" stroke-linecap="round" stroke-linejoin="round"/>
</g>
</svg>
