<svg width="35" height="40" viewBox="0 0 35 40" fill="none" xmlns="http://www.w3.org/2000/svg">
<g id="Group">
<path id="Vector" d="M16.5481 7.27449C15.9463 7.15414 15.3446 7.57537 15.1641 8.17712C14.2012 12.931 13.0579 13.1717 12.9977 13.1717C12.757 13.2319 12.4562 12.9912 12.1553 12.6903V15.3982C12.396 15.4584 12.6969 15.5185 12.9376 15.5185C15.7056 15.5185 16.849 11.4266 17.3906 8.65853C17.5711 7.9966 17.1498 7.39484 16.5481 7.27449Z" fill="#AB47BC"/>
<path id="Vector_2" d="M11.8532 29.418C10.7701 29.8392 9.62673 30.0799 8.4834 30.2003L10.3488 35.7966H9.62673L9.98779 36.8196C10.2887 37.662 10.048 38.6248 9.32586 39.2868H12.816C14.0196 39.2868 14.8018 38.1434 14.4408 37.0001L11.8532 29.418Z" fill="#AB47BC"/>
<path id="Vector_3" d="M9.38739 36.9391L7.1609 30.2596C5.89721 30.2596 4.57335 30.0189 3.30966 29.5977L5.35563 35.7356H1.74509C0.782283 35.7356 0 36.5178 0 37.4807C0.0601756 38.4435 0.782283 39.2258 1.74509 39.2258H7.70248C8.96617 39.2258 9.74845 38.0222 9.38739 36.9391Z" fill="#AB47BC"/>
<path id="Vector_4" d="M7.28106 8.11644C9.32703 8.11644 10.9518 6.4917 10.9518 4.44573C10.9518 2.39976 9.32703 0.714844 7.28106 0.714844C5.23509 0.714844 3.61035 2.33958 3.61035 4.38556C3.61035 6.43153 5.23509 8.11644 7.28106 8.11644Z" fill="#AB47BC"/>
<path id="Vector_5" d="M1.32338 28.0333C5.11445 30.0793 9.38691 30.0793 13.178 28.0333C13.539 27.8528 13.6594 27.4917 13.5992 27.0705L12.6966 22.1962C7.04007 21.4741 4.39234 17.4424 5.05427 13.2301C5.2348 12.2673 6.07726 11.6655 7.04007 11.846C8.00288 12.0266 8.60463 12.869 8.4241 13.8318C8.06305 15.8778 9.20639 17.8636 11.9143 18.5857C11.5532 16.8406 11.6134 17.0211 11.6134 16.7804V10.7027C11.6134 10.4018 11.4329 10.0408 11.132 9.92042C8.54446 8.65673 5.95691 8.65673 3.36935 9.92042C3.06848 10.0408 2.88795 10.4018 2.88795 10.7027V16.7804C2.88795 16.8406 2.88795 16.9008 2.88795 16.961L0.902155 27.0705C0.841979 27.4315 1.02251 27.8528 1.32338 28.0333Z" fill="#AB47BC"/>
<path id="Vector_6" d="M15.5257 19.4884C12.3965 19.6088 10.17 18.9468 8.96652 17.5026C7.58248 15.938 7.88336 13.7717 7.88336 13.7115C8.00371 13.1098 7.58248 12.508 6.92055 12.3877C6.31879 12.2673 5.71704 12.6886 5.59669 13.3505C4.87458 17.5628 7.82318 22.0158 15.5858 21.7751C16.2478 21.7751 16.7292 21.2335 16.669 20.5716C16.7292 19.9698 16.1876 19.4282 15.5257 19.4884Z" fill="#AB47BC"/>
<path id="Vector_7" d="M34.661 35.3149C34.661 35.3149 34.0592 34.5928 34.3601 33.991C34.3601 33.991 34.9017 33.8105 34.8415 32.7875C34.8415 32.7875 35.1424 30.3805 33.7583 29.177C33.1566 28.2743 35.8043 32.4866 28.2222 20.271C28.2222 20.271 29.2452 16.7808 27.9815 14.9755C27.9815 14.9755 27.7408 8.77744 26.2364 13.411C26.2364 13.411 25.8151 13.0499 25.2736 11.8464C25.2736 11.8464 24.9125 12.6287 25.3939 13.411H24.5515C24.5515 13.411 23.8293 13.5915 23.2878 14.3136C23.2878 14.3136 22.9869 14.8552 20.5799 14.9755C20.5799 14.9755 19.6772 15.1561 20.2188 15.8782C20.2188 15.8782 20.4595 16.9011 22.5055 16.7206C22.5055 16.7206 20.9409 16.841 20.5799 18.2852C20.5799 18.2852 20.8807 18.3454 21.0613 18.1047C21.0613 18.1047 21.4825 18.9471 23.8895 18.4657C23.8895 18.4657 23.8293 19.7294 23.0471 20.6922C23.0471 20.6922 21.302 22.678 21.663 23.701C21.663 23.701 22.5657 26.108 22.5657 27.6124C22.5657 27.6124 22.5055 30.8619 21.9037 32.0654C21.9037 32.0654 22.2648 33.991 20.3993 35.1344L19.7374 35.1945C19.7374 35.1945 18.5339 36.2777 19.1958 36.2777C19.1958 36.2777 20.0985 36.8193 21.3622 36.398C21.3622 36.398 20.5197 37.421 21.0613 37.4812C21.0613 37.4812 23.0471 37.9024 23.6488 36.8794L24.3709 35.2547C24.3709 35.2547 30.1478 35.3149 30.4487 34.653C30.4487 34.653 31.8929 35.2547 32.9159 34.7131C32.9159 34.7131 33.3371 35.2547 33.1566 36.037C33.1566 36.037 33.1566 36.8193 34.5406 36.7591C34.3601 36.7591 35.5636 36.6989 34.661 35.3149ZM25.9355 30.9221L27.5602 32.7273L25.2134 32.6672L25.9355 30.9221ZM22.686 34.8937C22.325 35.4954 21.5427 36.037 21.5427 36.037C21.663 35.2547 23.0471 33.4494 23.0471 33.4494C23.2878 33.7503 22.686 34.8937 22.686 34.8937ZM24.4913 29.6584L23.2878 32.607C23.4081 32.1858 24.3709 28.5752 24.4311 28.5752C24.9727 28.2743 24.4913 29.6584 24.4913 29.6584ZM24.7922 33.8707L25.1532 33.2087L27.9213 33.5698C28.2222 34.1715 24.7922 33.8707 24.7922 33.8707Z" fill="#AB47BC"/>
</g>
</svg>
