<svg width="16" height="16" viewBox="0 0 16 16" fill="none" xmlns="http://www.w3.org/2000/svg">
<g id="mail-open" clip-path="url(#clip0_89_4452)">
<path id="Vector" d="M14.6667 6.66634C14.6667 6.24634 14.4667 5.85301 14.1334 5.59967L8.80004 1.59967C8.56925 1.42658 8.28853 1.33301 8.00004 1.33301C7.71155 1.33301 7.43084 1.42658 7.20004 1.59967L1.86671 5.59967C1.70111 5.72387 1.56671 5.88492 1.47414 6.07006C1.38157 6.2552 1.33337 6.45935 1.33337 6.66634M14.6667 6.66634V13.333C14.6667 13.6866 14.5262 14.0258 14.2762 14.2758C14.0261 14.5259 13.687 14.6663 13.3334 14.6663H2.66671C2.31309 14.6663 1.97395 14.5259 1.7239 14.2758C1.47385 14.0258 1.33337 13.6866 1.33337 13.333V6.66634M14.6667 6.66634L8.68671 10.4663C8.48089 10.5953 8.24292 10.6637 8.00004 10.6637C7.75716 10.6637 7.51919 10.5953 7.31337 10.4663L1.33337 6.66634" stroke="#0091EA" stroke-width="1.5" stroke-linecap="round" stroke-linejoin="round"/>
</g>
<defs>
<clipPath id="clip0_89_4452">
<rect width="16" height="16" fill="white"/>
</clipPath>
</defs>
</svg>
