<svg width="14" height="14" viewBox="0 0 14 14" fill="none" xmlns="http://www.w3.org/2000/svg">
<g id="Delete">
<path id="Stroke 1" d="M11.8833 5.3125C11.8833 5.3125 11.5213 9.8025 11.3113 11.6938C11.2113 12.5972 10.6533 13.1265 9.73927 13.1432C7.99994 13.1745 6.25861 13.1765 4.51994 13.1398C3.64061 13.1218 3.09194 12.5858 2.99394 11.6985C2.78261 9.7905 2.42261 5.3125 2.42261 5.3125" stroke="#D12020" stroke-width="1.5" stroke-linecap="round" stroke-linejoin="round"/>
<path id="Stroke 3" d="M12.8055 3.15951H1.50012" stroke="#D12020" stroke-width="1.5" stroke-linecap="round" stroke-linejoin="round"/>
<path id="Stroke 5" d="M10.627 3.15998C10.1037 3.15998 9.65301 2.78998 9.55034 2.27732L9.38834 1.46665C9.28834 1.09265 8.94968 0.833984 8.56368 0.833984H5.74168C5.35568 0.833984 5.01701 1.09265 4.91701 1.46665L4.75501 2.27732C4.65234 2.78998 4.20168 3.15998 3.67834 3.15998" stroke="#D12020" stroke-width="1.5" stroke-linecap="round" stroke-linejoin="round"/>
</g>
</svg>
