<svg width="22" height="22" viewBox="0 0 22 22" fill="none" xmlns="http://www.w3.org/2000/svg">
<path id="Vector" fill-rule="evenodd" clip-rule="evenodd" d="M15.8944 1.44747C16.1414 0.953502 15.9412 0.352822 15.4473 0.105812C14.9533 -0.141201 14.3526 0.059002 14.1056 0.552962L13.6056 1.55296C13.3586 2.04693 13.5588 2.64761 14.0527 2.89462C14.5467 3.14163 15.1474 2.94143 15.3944 2.44747L15.8944 1.44747ZM20.2071 3.20735C20.5976 2.81682 20.5976 2.18366 20.2071 1.79313C19.8166 1.40261 19.1834 1.40261 18.7929 1.79313L17.2929 3.29313C16.9024 3.68366 16.9024 4.31682 17.2929 4.70735C17.6834 5.09787 18.3166 5.09787 18.7071 4.70735L20.2071 3.20735ZM21.8943 6.55306C22.1413 7.04704 21.9411 7.64771 21.4471 7.89469L20.4471 8.39469C19.9531 8.64167 19.3524 8.44145 19.1055 7.94746C18.8585 7.45348 19.0587 6.85281 19.5527 6.60583L20.5527 6.10583C21.0467 5.85885 21.6473 6.05908 21.8943 6.55306ZM6.57006 3.62406C7.06765 2.62888 8.0848 2.00024 9.1975 2.00024C9.9765 2.00024 10.7237 2.30973 11.2746 2.86062L19.1396 10.7256C19.6905 11.2765 20 12.0237 20 12.8027C20 13.9154 19.3714 14.9326 18.3762 15.4301L18 15.6182V18.0002C18 20.2093 16.2091 22.0002 14 22.0002H4V21.9937C1.77029 21.8713 0 20.0244 0 17.7641C0 17.1065 0.15311 16.4579 0.44721 15.8697L6.57006 3.62406ZM9.1975 4.00024C8.84235 4.00024 8.51772 4.20087 8.35891 4.51849L2.23607 16.7641C2.08082 17.0746 2 17.417 2 17.7641C2 18.9991 3.00112 20.0002 4.23607 20.0002C4.58321 20.0002 4.92558 19.9194 5.23607 19.7641L17.4818 13.6413C17.7994 13.4825 18 13.1579 18 12.8027C18 12.5541 17.9012 12.3156 17.7254 12.1398L9.8604 4.27483C9.6846 4.09901 9.4461 4.00024 9.1975 4.00024ZM9.2361 20.0002L16 16.6182V18.0002C16 19.1048 15.1046 20.0002 14 20.0002H9.2361Z" fill="black"/>
</svg>
