<svg width="25" height="24" viewBox="0 0 25 24" fill="none" xmlns="http://www.w3.org/2000/svg">
<g id="message-square-text">
<g id="Vector">
<path d="M13.75 8H7.75M17.75 12H7.75M21.75 15C21.75 15.5304 21.5393 16.0391 21.1642 16.4142C20.7891 16.7893 20.2804 17 19.75 17H7.75L3.75 21V5C3.75 4.46957 3.96071 3.96086 4.33579 3.58579C4.71086 3.21071 5.21957 3 5.75 3H19.75C20.2804 3 20.7891 3.21071 21.1642 3.58579C21.5393 3.96086 21.75 4.46957 21.75 5V15Z"  stroke-width="1.4" stroke-linecap="round" stroke-linejoin="round"/>
<path d="M13.75 8H7.75M17.75 12H7.75M21.75 15C21.75 15.5304 21.5393 16.0391 21.1642 16.4142C20.7891 16.7893 20.2804 17 19.75 17H7.75L3.75 21V5C3.75 4.46957 3.96071 3.96086 4.33579 3.58579C4.71086 3.21071 5.21957 3 5.75 3H19.75C20.2804 3 20.7891 3.21071 21.1642 3.58579C21.5393 3.96086 21.75 4.46957 21.75 5V15Z"  stroke-opacity="0.56" stroke-width="1.4" stroke-linecap="round" stroke-linejoin="round"/>
</g>
</g>
</svg>
