<svg width="29" height="28" viewBox="0 0 29 28" fill="none" xmlns="http://www.w3.org/2000/svg">
<g id="book-open-check">
<g id="Vector">
<path d="M14.2499 24.5C14.2499 22.5167 12.7333 21 10.7499 21H2.58325V3.5H9.58325C12.1499 3.5 14.2499 5.6 14.2499 8.16667M14.2499 24.5V8.16667M14.2499 24.5C14.2499 22.5167 15.7666 21 17.7499 21H25.9166V18.3167M14.2499 8.16667C14.2499 5.6 16.3499 3.5 18.9166 3.5H25.9166V7M18.9166 14L21.2499 16.3333L25.9166 11.6667"  stroke-width="1.4" stroke-linecap="round" stroke-linejoin="round"/>
<path d="M14.2499 24.5C14.2499 22.5167 12.7333 21 10.7499 21H2.58325V3.5H9.58325C12.1499 3.5 14.2499 5.6 14.2499 8.16667M14.2499 24.5V8.16667M14.2499 24.5C14.2499 22.5167 15.7666 21 17.7499 21H25.9166V18.3167M14.2499 8.16667C14.2499 5.6 16.3499 3.5 18.9166 3.5H25.9166V7M18.9166 14L21.2499 16.3333L25.9166 11.6667"  stroke-opacity="0.56" stroke-width="1.4" stroke-linecap="round" stroke-linejoin="round"/>
</g>
</g>
</svg>
