<svg width="17" height="17" viewBox="0 0 17 17" fill="none" xmlns="http://www.w3.org/2000/svg">
<g id="phone-call" clip-path="url(#clip0_1_9884)">
<path id="Vector" d="M9.9521 1.41669C11.3959 1.56882 12.7445 2.20917 13.7749 3.23185C14.8053 4.25453 15.4558 5.59827 15.6188 7.04085M9.9521 4.25002C10.6488 4.38739 11.288 4.731 11.787 5.23624C12.2859 5.74148 12.6214 6.38503 12.75 7.08335M15.5833 11.9851V14.1101C15.5841 14.3074 15.5437 14.5026 15.4646 14.6834C15.3856 14.8641 15.2697 15.0264 15.1243 15.1597C14.979 15.2931 14.8073 15.3946 14.6205 15.4578C14.4336 15.521 14.2356 15.5445 14.0391 15.5268C11.8594 15.2899 9.76572 14.5451 7.92618 13.3522C6.21473 12.2646 4.76371 10.8136 3.67618 9.10217C2.47908 7.25428 1.7341 5.15038 1.5016 2.96092C1.4839 2.76504 1.50718 2.56763 1.56995 2.38124C1.63273 2.19485 1.73363 2.02358 1.86622 1.87832C1.99882 1.73306 2.16021 1.61701 2.34012 1.53754C2.52002 1.45808 2.71451 1.41694 2.91118 1.41676H5.03618C5.37994 1.41337 5.7132 1.5351 5.97385 1.75926C6.23449 1.98341 6.40474 2.2947 6.45285 2.63509C6.54254 3.31514 6.70888 3.98285 6.94868 4.62551C7.04398 4.87903 7.06461 5.15457 7.00812 5.41946C6.95162 5.68435 6.82038 5.9275 6.62993 6.12009L5.73035 7.01967C6.7387 8.79302 8.207 10.2613 9.98035 11.2697L10.8799 10.3701C11.0725 10.1796 11.3157 10.0484 11.5806 9.99191C11.8455 9.93541 12.121 9.95604 12.3745 10.0513C13.0172 10.2911 13.6849 10.4575 14.3649 10.5472C14.709 10.5957 15.0233 10.769 15.2479 11.0341C15.4725 11.2993 15.5919 11.6377 15.5833 11.9851Z" stroke="#00ACC1" stroke-width="1.5" stroke-linecap="round" stroke-linejoin="round"/>
</g>
<defs>
<clipPath id="clip0_1_9884">
<rect width="17" height="17" fill="white"/>
</clipPath>
</defs>
</svg>
