<svg width="16" height="16" viewBox="0 0 16 16" fill="none" xmlns="http://www.w3.org/2000/svg">
<g id="star">
<path id="Vector" d="M7.55157 2.24157C7.73498 1.86998 8.26485 1.86998 8.44827 2.24157L9.9437 5.27113C10.0165 5.41855 10.1571 5.52078 10.3197 5.54456L13.6647 6.03348C14.0747 6.0934 14.238 6.59732 13.9412 6.8864L11.5216 9.24309C11.4037 9.35796 11.3499 9.52353 11.3777 9.68579L11.9486 13.0146C12.0187 13.423 11.5899 13.7345 11.2231 13.5416L8.23264 11.969C8.08695 11.8924 7.91288 11.8924 7.76719 11.969L4.77673 13.5416C4.40992 13.7345 3.98115 13.423 4.0512 13.0146L4.62213 9.68579C4.64996 9.52353 4.59613 9.35796 4.47819 9.24309L2.05859 6.8864C1.76179 6.59732 1.92519 6.0934 2.33514 6.03348L5.6801 5.54456C5.84278 5.52078 5.98337 5.41855 6.05614 5.27113L7.55157 2.24157Z" stroke="#0091EA" stroke-width="1.5" stroke-linecap="round" stroke-linejoin="round"/>
</g>
</svg>
